<?xml version="1.0" encoding="UTF-8"?>
<!DOCTYPE svg
  PUBLIC '-//W3C//DTD SVG 1.1//EN'
  'http://www.w3.org/Graphics/SVG/1.1/DTD/svg11.dtd'>
<svg version="1.1" xmlns="http://www.w3.org/2000/svg" width="51.680mm" height="23.764mm">
    <!--Autogenerated with python-barcode 0.15.1-->
    <g id="barcode_group">
        <rect width="100%" height="100%" style="fill:white"/>
        <rect x="2.540mm" y="1.000mm" width="0.400mm" height="15.000mm" style="fill:black;"/>
        <rect x="3.140mm" y="1.000mm" width="0.200mm" height="15.000mm" style="fill:black;"/>
        <rect x="3.740mm" y="1.000mm" width="0.200mm" height="15.000mm" style="fill:black;"/>
        <rect x="4.740mm" y="1.000mm" width="0.800mm" height="15.000mm" style="fill:black;"/>
        <rect x="5.740mm" y="1.000mm" width="0.600mm" height="15.000mm" style="fill:black;"/>
        <rect x="6.540mm" y="1.000mm" width="0.200mm" height="15.000mm" style="fill:black;"/>
        <rect x="6.940mm" y="1.000mm" width="0.200mm" height="15.000mm" style="fill:black;"/>
        <rect x="7.540mm" y="1.000mm" width="0.200mm" height="15.000mm" style="fill:black;"/>
        <rect x="7.940mm" y="1.000mm" width="0.400mm" height="15.000mm" style="fill:black;"/>
        <rect x="9.140mm" y="1.000mm" width="0.800mm" height="15.000mm" style="fill:black;"/>
        <rect x="10.340mm" y="1.000mm" width="0.200mm" height="15.000mm" style="fill:black;"/>
        <rect x="10.940mm" y="1.000mm" width="0.200mm" height="15.000mm" style="fill:black;"/>
        <rect x="11.340mm" y="1.000mm" width="0.800mm" height="15.000mm" style="fill:black;"/>
        <rect x="12.540mm" y="1.000mm" width="0.200mm" height="15.000mm" style="fill:black;"/>
        <rect x="13.140mm" y="1.000mm" width="0.200mm" height="15.000mm" style="fill:black;"/>
        <rect x="13.540mm" y="1.000mm" width="0.200mm" height="15.000mm" style="fill:black;"/>
        <rect x="14.540mm" y="1.000mm" width="0.400mm" height="15.000mm" style="fill:black;"/>
        <rect x="15.140mm" y="1.000mm" width="0.200mm" height="15.000mm" style="fill:black;"/>
        <rect x="15.740mm" y="1.000mm" width="0.200mm" height="15.000mm" style="fill:black;"/>
        <rect x="16.340mm" y="1.000mm" width="0.400mm" height="15.000mm" style="fill:black;"/>
        <rect x="16.940mm" y="1.000mm" width="0.600mm" height="15.000mm" style="fill:black;"/>
        <rect x="17.940mm" y="1.000mm" width="0.200mm" height="15.000mm" style="fill:black;"/>
        <rect x="18.540mm" y="1.000mm" width="0.200mm" height="15.000mm" style="fill:black;"/>
        <rect x="18.940mm" y="1.000mm" width="0.400mm" height="15.000mm" style="fill:black;"/>
        <rect x="20.140mm" y="1.000mm" width="0.200mm" height="15.000mm" style="fill:black;"/>
        <rect x="20.740mm" y="1.000mm" width="0.200mm" height="15.000mm" style="fill:black;"/>
        <rect x="21.740mm" y="1.000mm" width="0.400mm" height="15.000mm" style="fill:black;"/>
        <rect x="22.340mm" y="1.000mm" width="0.200mm" height="15.000mm" style="fill:black;"/>
        <rect x="23.340mm" y="1.000mm" width="0.200mm" height="15.000mm" style="fill:black;"/>
        <rect x="23.740mm" y="1.000mm" width="0.400mm" height="15.000mm" style="fill:black;"/>
        <rect x="24.540mm" y="1.000mm" width="0.200mm" height="15.000mm" style="fill:black;"/>
        <rect x="25.140mm" y="1.000mm" width="0.600mm" height="15.000mm" style="fill:black;"/>
        <rect x="26.140mm" y="1.000mm" width="0.400mm" height="15.000mm" style="fill:black;"/>
        <rect x="26.740mm" y="1.000mm" width="0.400mm" height="15.000mm" style="fill:black;"/>
        <rect x="27.540mm" y="1.000mm" width="0.600mm" height="15.000mm" style="fill:black;"/>
        <rect x="28.540mm" y="1.000mm" width="0.200mm" height="15.000mm" style="fill:black;"/>
        <rect x="28.940mm" y="1.000mm" width="0.400mm" height="15.000mm" style="fill:black;"/>
        <rect x="29.740mm" y="1.000mm" width="0.200mm" height="15.000mm" style="fill:black;"/>
        <rect x="30.140mm" y="1.000mm" width="0.600mm" height="15.000mm" style="fill:black;"/>
        <rect x="31.140mm" y="1.000mm" width="0.200mm" height="15.000mm" style="fill:black;"/>
        <rect x="31.740mm" y="1.000mm" width="0.400mm" height="15.000mm" style="fill:black;"/>
        <rect x="32.340mm" y="1.000mm" width="0.600mm" height="15.000mm" style="fill:black;"/>
        <rect x="33.340mm" y="1.000mm" width="0.200mm" height="15.000mm" style="fill:black;"/>
        <rect x="33.740mm" y="1.000mm" width="0.600mm" height="15.000mm" style="fill:black;"/>
        <rect x="34.540mm" y="1.000mm" width="0.800mm" height="15.000mm" style="fill:black;"/>
        <rect x="35.540mm" y="1.000mm" width="0.200mm" height="15.000mm" style="fill:black;"/>
        <rect x="35.940mm" y="1.000mm" width="0.400mm" height="15.000mm" style="fill:black;"/>
        <rect x="36.740mm" y="1.000mm" width="0.600mm" height="15.000mm" style="fill:black;"/>
        <rect x="37.740mm" y="1.000mm" width="0.200mm" height="15.000mm" style="fill:black;"/>
        <rect x="38.540mm" y="1.000mm" width="0.200mm" height="15.000mm" style="fill:black;"/>
        <rect x="38.940mm" y="1.000mm" width="0.400mm" height="15.000mm" style="fill:black;"/>
        <rect x="39.940mm" y="1.000mm" width="0.200mm" height="15.000mm" style="fill:black;"/>
        <rect x="40.340mm" y="1.000mm" width="0.800mm" height="15.000mm" style="fill:black;"/>
        <rect x="41.340mm" y="1.000mm" width="0.600mm" height="15.000mm" style="fill:black;"/>
        <rect x="42.140mm" y="1.000mm" width="0.400mm" height="15.000mm" style="fill:black;"/>
        <rect x="42.740mm" y="1.000mm" width="0.600mm" height="15.000mm" style="fill:black;"/>
        <rect x="43.740mm" y="1.000mm" width="0.200mm" height="15.000mm" style="fill:black;"/>
        <rect x="44.340mm" y="1.000mm" width="0.200mm" height="15.000mm" style="fill:black;"/>
        <rect x="44.940mm" y="1.000mm" width="0.200mm" height="15.000mm" style="fill:black;"/>
        <rect x="45.340mm" y="1.000mm" width="0.800mm" height="15.000mm" style="fill:black;"/>
        <rect x="46.540mm" y="1.000mm" width="0.400mm" height="15.000mm" style="fill:black;"/>
        <rect x="47.540mm" y="1.000mm" width="0.600mm" height="15.000mm" style="fill:black;"/>
        <rect x="48.340mm" y="1.000mm" width="0.200mm" height="15.000mm" style="fill:black;"/>
        <rect x="48.740mm" y="1.000mm" width="0.400mm" height="15.000mm" style="fill:black;"/>
        <text x="25.840mm" y="21.000mm" style="fill:black;font-size:10pt;text-anchor:middle;">maxxi-abc123-12345</text>
    </g>
</svg>
